HIERARCHY
ROOT hip
{
	OFFSET 0.000000 0.000000 0.000000 
	CHANNELS 6 Xposition Yposition Zposition Xrotation Zrotation Yrotation
	JOINT abdomen
	{
		OFFSET 0.000000 3.402643 0.000000 
		CHANNELS 3 Xrotation Zrotation Yrotation
		JOINT chest
		{
			OFFSET 0.000000 8.438565 -0.680529 
			CHANNELS 3 Xrotation Zrotation Yrotation
			JOINT neck
			{
				OFFSET 0.000000 10.207942 -0.272212 
				CHANNELS 3 Xrotation Zrotation Yrotation
				JOINT head
				{
					OFFSET 0.000000 3.130431 0.000000 
					CHANNELS 3 Xrotation Zrotation Yrotation
					End Site
					{
						OFFSET 0.000000 3.130435 0.000000 
					}
				}
			}
			JOINT lCollar
			{
				OFFSET 3.470700 6.669187 -0.816635 
				CHANNELS 3 Yrotation Zrotation Xrotation
				JOINT lShldr
				{
					OFFSET 3.198488 0.000000 0.000000 
					CHANNELS 3 Zrotation Yrotation Xrotation
					JOINT lForeArm
					{
						OFFSET 10.139888 0.000000 0.000000 
						CHANNELS 3 Yrotation Zrotation Xrotation
						JOINT lHand
						{
							OFFSET 8.370511 0.000000 0.000000 
							CHANNELS 3 Zrotation Yrotation Xrotation
							End Site
							{
								OFFSET 4.083176 0.000000 0.000000 
							}
						}
					}
				}
			}
			JOINT rCollar
			{
				OFFSET -3.470700 6.669187 -0.816635 
				CHANNELS 3 Yrotation Zrotation Xrotation
				JOINT rShldr
				{
					OFFSET -3.198488 0.000000 0.000000 
					CHANNELS 3 Zrotation Yrotation Xrotation
					JOINT rForeArm
					{
						OFFSET -10.139888 0.000000 0.000000 
						CHANNELS 3 Yrotation Zrotation Xrotation
						JOINT rHand
						{
							OFFSET -8.370511 0.000000 0.000000 
							CHANNELS 3 Zrotation Yrotation Xrotation
							End Site
							{
								OFFSET -4.083176 0.000000 0.000000 
							}
						}
					}
				}
			}
		}
	}
	JOINT lThigh
	{
		OFFSET 5.308129 -1.633274 1.361059 
		CHANNELS 3 Xrotation Zrotation Yrotation
		JOINT lShin
		{
			OFFSET -2.041588 -20.007561 0.000000 
			CHANNELS 3 Xrotation Zrotation Yrotation
			JOINT lFoot
			{
				OFFSET 0.000000 -19.190928 -1.224953 
				CHANNELS 3 Xrotation Yrotation Zrotation
				End Site
				{
					OFFSET 0.000000 -2.449906 4.627600 
				}
			}
		}
	}
	JOINT rThigh
	{
		OFFSET -5.308129 -1.633274 1.361059 
		CHANNELS 3 Xrotation Zrotation Yrotation
		JOINT rShin
		{
			OFFSET 2.041588 -20.007561 0.000000 
			CHANNELS 3 Xrotation Zrotation Yrotation
			JOINT rFoot
			{
				OFFSET 0.000000 -19.190928 -1.224953 
				CHANNELS 3 Xrotation Yrotation Zrotation
				End Site
				{
					OFFSET 0.000000 -2.449906 4.627600 
				}
			}
		}
	}
}
MOTION
Frames: 6
Frame Time: 0.033333
-39.329460 50.590260 -7.683993 -6.393313 0.624806 71.054916 0.000000 0.000000 0.000000 2.240511 2.836050 5.984194 6.713230 3.756524 -17.822416 1.088981 1.741113 -23.224098 6.300428 4.627306 2.345444 -47.470016 31.770731 -12.424608 -80.746674 2.950800 35.418400 4.666794 -8.043359 -3.795596 15.199895 13.004475 1.119454 54.241318 40.965687 73.581131 72.009964 3.610064 42.288574 -13.797062 -3.432666 -3.507882 3.473353 10.326268 8.381118 15.894529 -1.827394 -6.166936 -16.233627 0.116897 -1.139063 5.433415 -7.961289 -11.681344 6.004308 4.188502 -32.475506 5.280269 0.481360 11.392616 
-39.158348 50.631603 -7.828686 -6.549654 1.543704 72.958519 0.000000 0.000000 0.000000 2.759667 2.700460 5.905207 7.271000 3.985800 -18.375801 0.711955 1.593644 -23.544788 6.651021 5.164583 2.792980 -46.040459 32.497204 -16.211967 -84.563606 2.055794 29.860477 2.583672 -8.524059 -3.592203 15.008044 13.276339 1.605630 53.266273 42.317951 74.117249 74.745796 0.723999 42.233192 -15.914518 -4.246477 -3.393639 4.323778 9.977352 8.205601 15.332841 -1.515068 -7.347880 -15.864944 0.063779 -0.869309 5.367420 -8.609746 -11.994261 9.097370 3.838944 -31.131104 5.326898 0.566543 12.945270 
-39.039379 50.638401 -7.922489 -6.512956 1.959013 74.151039 0.000000 0.000000 0.000000 2.916278 2.776921 6.150004 7.782244 3.479773 -18.639084 0.000724 2.663793 -24.617788 6.939420 4.835148 2.936213 -44.493942 33.367668 -21.127724 -88.425606 0.642190 23.653681 2.344166 -7.951151 -3.567403 15.105190 12.325486 1.829790 53.050163 44.045574 73.989769 77.348534 -2.059029 42.335476 -16.772390 -4.292310 -3.381969 4.500221 9.714802 7.933449 15.250785 -1.251338 -8.024890 -15.758636 0.059584 -0.750080 4.587162 -9.303653 -12.112069 12.038652 3.638025 -28.414633 5.002854 0.573314 14.039558 
-38.889099 50.668327 -8.001908 -7.091197 1.774455 74.866936 0.000000 0.000000 0.000000 2.663968 3.494111 6.349868 8.066430 3.507734 -18.629335 -0.379596 3.589571 -25.463139 7.515087 4.790458 2.602148 -43.448498 34.091801 -27.939629 -92.239990 -1.311828 19.946066 3.711176 -7.162701 -3.686572 15.429674 12.005537 1.479930 51.642033 46.504906 73.587654 79.614990 -4.391663 44.380070 -18.776649 -5.313748 -3.216799 4.497945 10.218609 8.176172 15.292302 -1.085989 -8.826177 -15.926032 0.038867 -0.552234 2.556427 -9.936052 -11.356110 17.155481 3.394611 -21.263641 5.254225 0.721330 16.276768 
-38.849396 50.671227 -7.991232 -7.309814 2.325861 75.395111 0.000000 0.000000 0.000000 3.050414 3.512033 6.565499 8.522490 3.879934 -18.951138 -0.231352 3.480603 -25.871145 7.775721 5.939586 2.905851 -43.912922 34.368259 -36.456245 -96.275688 -3.974627 14.557571 4.388153 -6.493423 -3.736717 15.435651 12.157262 1.815807 48.803856 49.810444 71.811951 82.227577 -7.068737 43.533161 -18.792477 -4.085602 -3.401740 5.008665 10.507277 8.605846 15.435625 -1.222074 -9.880950 -16.015114 -0.000191 -0.275933 2.242767 -10.362679 -11.762933 18.363174 3.802691 -19.077070 5.330809 0.726177 16.017941 
-38.684292 50.652195 -7.961656 -6.765935 2.520851 75.942772 0.000000 0.000000 0.000000 2.846892 3.163573 6.435887 8.716699 3.834829 -19.302469 -0.096005 3.632732 -26.071428 8.314016 5.899881 2.717484 -43.209446 34.713741 -44.617535 -99.124603 -7.179400 6.793768 7.445807 -6.120536 -3.978375 15.690444 12.406935 1.633083 44.282219 53.363850 69.171768 84.703209 -9.390310 44.652557 -19.499613 -4.476561 -3.340254 5.436490 9.839633 8.093629 14.806969 -0.978435 -10.029134 -15.907193 0.017387 -0.409571 1.794283 -11.564763 -12.437557 19.385859 4.211506 -16.019836 4.782892 0.628453 15.761442 
